<svg xmlns="http://www.w3.org/2000/svg" viewBox="0 0 262.35 108.62"><defs><style>.cls-1{fill:#00acc1;}.cls-2,.cls-3,.cls-4{fill:none;stroke-linecap:round;stroke-miterlimit:10;}.cls-2{stroke:#e51f76;}.cls-2,.cls-3{stroke-width:7.18px;}.cls-3{stroke:#00aec3;}.cls-4{stroke:#e72176;stroke-width:5.63px;}</style></defs><g id="Capa_2" data-name="Capa 2"><g id="Capa_1-2" data-name="Capa 1"><path class="cls-1" d="M150.2,44.45l-4-12.35h2.84l3.49,11.24H152l3.55-11.24h2.63l-4,12.35Z"/><path class="cls-1" d="M159.27,44.45V32.1h8.67v2.17h-6v8H168v2.17Zm1.61-5.23V37.05h6.21v2.17Z"/><path class="cls-1" d="M169.73,44.45V32.38c.38-.08.77-.16,1.2-.22s.86-.12,1.31-.15.9-.06,1.36-.06a6.78,6.78,0,0,1,4,1,3.42,3.42,0,0,1,1.34,3,3.72,3.72,0,0,1-.63,2.21,3.81,3.81,0,0,1-1.81,1.34,7.79,7.79,0,0,1-2.8.45H173l-.63,0v4.57Zm4-6.55a3.36,3.36,0,0,0,2-.47,1.73,1.73,0,0,0,.65-1.51,2,2,0,0,0-.28-1.12,1.55,1.55,0,0,0-.83-.64,4.09,4.09,0,0,0-1.42-.21q-.42,0-.78,0c-.24,0-.47.06-.69.1v3.75l.45,0c.14,0,.29,0,.43,0ZM177,44.45l-4-5.71h2.9l4,5.71Z"/><path class="cls-1" d="M181.23,44.45V32.1h2.71V44.45Z"/><path class="cls-1" d="M186.16,44.45V32.1h8.64v2.21h-5.93V44.45Zm1.73-4.92V37.32H194v2.21Z"/><path class="cls-1" d="M196.28,44.45V32.1H199V44.45Z"/><path class="cls-1" d="M207.23,44.61a9.38,9.38,0,0,1-2.72-.36,5.29,5.29,0,0,1-2-1.13,4.76,4.76,0,0,1-1.25-2,8.36,8.36,0,0,1-.43-2.86,7.35,7.35,0,0,1,.77-3.53,4.92,4.92,0,0,1,2.23-2.12,8.2,8.2,0,0,1,3.57-.71,12.16,12.16,0,0,1,1.37.08,9.26,9.26,0,0,1,1.28.22v2.23a11.84,11.84,0,0,0-1.19-.21,10.1,10.1,0,0,0-1.25-.08,5.2,5.2,0,0,0-2.2.41,2.75,2.75,0,0,0-1.31,1.32,5.47,5.47,0,0,0-.43,2.36,5.59,5.59,0,0,0,.43,2.41A2.59,2.59,0,0,0,205.35,42a5,5,0,0,0,2.14.4,7.48,7.48,0,0,0,1.26-.1A12.17,12.17,0,0,0,210,42v2.23a8.79,8.79,0,0,1-1.31.29A10.31,10.31,0,0,1,207.23,44.61Z"/><path class="cls-1" d="M210.54,44.45l4-12.35h3.94l4,12.35h-2.67l-3.45-11.16h.28l-3.45,11.16Zm2.77-3.3.58-2.16h5.21l.57,2.16Z"/><path class="cls-1" d="M229.44,44.61a9.5,9.5,0,0,1-2.73-.36,5.25,5.25,0,0,1-2-1.13,4.76,4.76,0,0,1-1.25-2A8.36,8.36,0,0,1,223,38.3a7.35,7.35,0,0,1,.77-3.53A4.87,4.87,0,0,1,226,32.65a8.2,8.2,0,0,1,3.57-.71,12,12,0,0,1,1.36.08,9.14,9.14,0,0,1,1.29.22v2.23a11.84,11.84,0,0,0-1.19-.21,10.1,10.1,0,0,0-1.25-.08,5.2,5.2,0,0,0-2.2.41,2.71,2.71,0,0,0-1.31,1.32,5.47,5.47,0,0,0-.43,2.36,5.59,5.59,0,0,0,.43,2.41A2.59,2.59,0,0,0,227.56,42a5,5,0,0,0,2.14.4,7.64,7.64,0,0,0,1.26-.1,12.17,12.17,0,0,0,1.27-.29v2.23a8.93,8.93,0,0,1-1.32.29A10.17,10.17,0,0,1,229.44,44.61Z"/><path class="cls-1" d="M233.74,44.45V32.1h2.71V44.45Z"/><path class="cls-1" d="M244.07,44.61a6.57,6.57,0,0,1-3.06-.68,4.77,4.77,0,0,1-2-2.09,7.81,7.81,0,0,1-.72-3.56,7.78,7.78,0,0,1,.72-3.56,4.72,4.72,0,0,1,2-2.09,7.15,7.15,0,0,1,6.13,0,4.74,4.74,0,0,1,2,2.1,7.73,7.73,0,0,1,.72,3.55,7.76,7.76,0,0,1-.72,3.55,4.77,4.77,0,0,1-2,2.09A6.53,6.53,0,0,1,244.07,44.61Zm0-2.19a3.07,3.07,0,0,0,1.64-.41,2.58,2.58,0,0,0,1-1.31,6.47,6.47,0,0,0,.36-2.36,6.55,6.55,0,0,0-.37-2.44,2.65,2.65,0,0,0-1-1.35,3.07,3.07,0,0,0-1.63-.42,3.14,3.14,0,0,0-1.62.41,2.58,2.58,0,0,0-1,1.31,6.26,6.26,0,0,0-.37,2.37,6.89,6.89,0,0,0,.36,2.45,2.67,2.67,0,0,0,1,1.34A3.16,3.16,0,0,0,244.07,42.42Zm-1.2-11.28,1.51-2.52h2.79l-1.91,2.52Z"/><path class="cls-1" d="M251.7,44.45V32.1h2.72l5.85,9h-.47v-9h2.55V44.45h-2.72l-5.84-9h.46v9Z"/><path class="cls-1" d="M150.23,64.47V54.38h-3.9V52.13h10.51v2.25H153V64.47Z"/><path class="cls-1" d="M158.05,64.47V52.13h8.67V54.3h-6v8h6.08v2.17Zm1.61-5.23V57.07h6.21v2.17Zm1.71-8.07,1.51-2.53h2.79l-1.91,2.53Z"/><path class="cls-1" d="M174.41,64.63a9.41,9.41,0,0,1-2.73-.36,5.17,5.17,0,0,1-2-1.13,4.79,4.79,0,0,1-1.25-2,8.67,8.67,0,0,1-.43-2.87,7.35,7.35,0,0,1,.77-3.53A4.9,4.9,0,0,1,171,52.67a8.16,8.16,0,0,1,3.56-.7,12.19,12.19,0,0,1,1.37.07,10.69,10.69,0,0,1,1.28.22V54.5a9.25,9.25,0,0,0-1.19-.22,10.06,10.06,0,0,0-1.24-.08,5.09,5.09,0,0,0-2.21.42,2.69,2.69,0,0,0-1.31,1.31,5.47,5.47,0,0,0-.43,2.36,5.59,5.59,0,0,0,.43,2.41,2.65,2.65,0,0,0,1.28,1.3,5.17,5.17,0,0,0,2.14.4,7.47,7.47,0,0,0,1.26-.11,10.06,10.06,0,0,0,1.27-.29v2.23a8.79,8.79,0,0,1-1.31.29A8.93,8.93,0,0,1,174.41,64.63Z"/><path class="cls-1" d="M178.7,64.47V52.13h2.72l5.85,9h-.47v-9h2.56V64.47h-2.73l-5.84-9h.46v9Z"/><path class="cls-1" d="M191.58,64.47V52.13h2.71V64.47Z"/><path class="cls-1" d="M202.53,64.63a9.5,9.5,0,0,1-2.73-.36,5.12,5.12,0,0,1-2-1.13,4.81,4.81,0,0,1-1.26-2,8.69,8.69,0,0,1-.42-2.87,7.35,7.35,0,0,1,.76-3.53,5,5,0,0,1,2.24-2.12,8.19,8.19,0,0,1,3.56-.7A12.07,12.07,0,0,1,204,52a10.85,10.85,0,0,1,1.29.22V54.5a9.58,9.58,0,0,0-1.19-.22,10.23,10.23,0,0,0-1.25-.08,5.09,5.09,0,0,0-2.21.42,2.67,2.67,0,0,0-1.3,1.31,5.46,5.46,0,0,0-.44,2.36,5.74,5.74,0,0,0,.43,2.41,2.67,2.67,0,0,0,1.29,1.3,5.14,5.14,0,0,0,2.14.4,7.66,7.66,0,0,0,1.26-.11,10.47,10.47,0,0,0,1.27-.29v2.23a9.22,9.22,0,0,1-1.32.29A8.93,8.93,0,0,1,202.53,64.63Z"/><path class="cls-1" d="M205.83,64.47l4-12.34h4l4,12.34h-2.67l-3.45-11.16h.28l-3.44,11.16Zm2.77-3.29.59-2.16h5.2l.58,2.16Z"/><path class="cls-1" d="M150.2,84.5l-4-12.35h2.84l3.49,11.24H152l3.55-11.24h2.63l-4,12.35Z"/><path class="cls-1" d="M159.27,84.5V72.15h8.67v2.17h-6v8H168V84.5Zm1.61-5.24V77.1h6.21v2.16Z"/><path class="cls-1" d="M169.73,84.5V72.15h2.72V77h5.08V72.15h2.72V84.5h-2.72V79.37h-5.08V84.5Z"/><path class="cls-1" d="M182.46,84.5V72.15h2.72V84.5Z"/><path class="cls-1" d="M193.42,84.65a9.5,9.5,0,0,1-2.73-.36,5.23,5.23,0,0,1-2-1.12,4.85,4.85,0,0,1-1.26-2,8.67,8.67,0,0,1-.42-2.86,7.39,7.39,0,0,1,.76-3.54A4.92,4.92,0,0,1,190,72.7a8,8,0,0,1,3.56-.71,12.19,12.19,0,0,1,1.37.07,10.85,10.85,0,0,1,1.29.22v2.24A9.58,9.58,0,0,0,195,74.3a10.24,10.24,0,0,0-1.25-.07,5.1,5.1,0,0,0-2.21.41,2.67,2.67,0,0,0-1.3,1.31,5.46,5.46,0,0,0-.44,2.36,5.74,5.74,0,0,0,.43,2.41,2.67,2.67,0,0,0,1.29,1.3,5.14,5.14,0,0,0,2.14.4,7.66,7.66,0,0,0,1.26-.11,12.67,12.67,0,0,0,1.27-.28v2.22a9.19,9.19,0,0,1-1.32.3A10.18,10.18,0,0,1,193.42,84.65Z"/><path class="cls-1" d="M202.87,84.65a6.65,6.65,0,0,1-3-.57,3.61,3.61,0,0,1-1.7-1.75,6.87,6.87,0,0,1-.55-3V72.15h2.7v7.5a3.06,3.06,0,0,0,.62,2.13,2.49,2.49,0,0,0,1.88.66,2.43,2.43,0,0,0,1.87-.66,3,3,0,0,0,.63-2.13v-7.5H208v7.23a7,7,0,0,1-.54,3,3.68,3.68,0,0,1-1.69,1.75A6.52,6.52,0,0,1,202.87,84.65Z"/><path class="cls-1" d="M210.19,84.5V72.15h2.71V82.24h5.67V84.5Z"/><path class="cls-1" d="M218.77,84.5l4-12.35h4l4,12.35H228l-3.45-11.17h.28L221.41,84.5Zm2.77-3.3.59-2.16h5.2l.58,2.16Z"/><path class="cls-1" d="M231.92,84.5V72.42c.37-.08.77-.15,1.19-.22s.86-.11,1.31-.15.91,0,1.36,0a6.9,6.9,0,0,1,4,1,3.47,3.47,0,0,1,1.34,3,3.74,3.74,0,0,1-.63,2.21,4,4,0,0,1-1.81,1.34,7.79,7.79,0,0,1-2.8.45l-.67,0-.64,0V84.5Zm4-6.55a3.41,3.41,0,0,0,2-.47,1.73,1.73,0,0,0,.66-1.51,2.09,2.09,0,0,0-.28-1.12,1.62,1.62,0,0,0-.83-.65,4.13,4.13,0,0,0-1.42-.21,6.41,6.41,0,0,0-.79,0,5,5,0,0,0-.69.1v3.75l.46,0,.43,0Zm3.25,6.55-4-5.71h2.9l4,5.71Z"/><path class="cls-2" d="M94.57,90.18a50.14,50.14,0,0,1-9.86,7.76,49.89,49.89,0,0,1-63.8-10.67"/><path class="cls-1" d="M34.85,33.15h2.89A4.4,4.4,0,0,1,41.89,39l-12,34A4.4,4.4,0,0,1,25.75,76H16.34a4.41,4.41,0,0,1-4.16-3L.25,39a4.41,4.41,0,0,1,4.16-5.87H8.05a4.42,4.42,0,0,1,4.2,3.05l9.18,28.41L30.65,36.2A4.42,4.42,0,0,1,34.85,33.15Z"/><path class="cls-1" d="M76.34,70.9v1.22a4.37,4.37,0,0,1-3.82,4.37,27.36,27.36,0,0,1-3.61.24q-7.9,0-12-3.91T52.83,60.69V43H49.31A3.91,3.91,0,0,1,45.4,39.1v-2a3.91,3.91,0,0,1,3.91-3.91H53l0-11.35a4.34,4.34,0,0,1,4.29-3.75h3.11a4.4,4.4,0,0,1,4.41,4.41V33.15H71.7a4.4,4.4,0,0,1,4.41,4.41v1A4.4,4.4,0,0,1,71.7,43H64.88V58.74a11.63,11.63,0,0,0,.73,4.57,4.5,4.5,0,0,0,2.22,2.41,9.43,9.43,0,0,0,4,.72h0A4.48,4.48,0,0,1,76.34,70.9Z"/><path class="cls-1" d="M119.69,13h2.9a4.4,4.4,0,0,1,4.15,5.87L109,73A4.4,4.4,0,0,1,104.85,76H95.44a4.41,4.41,0,0,1-4.16-3L79.35,39a4.41,4.41,0,0,1,4.16-5.87h3.64a4.41,4.41,0,0,1,4.2,3.05l9.18,28.41L115.5,16A4.4,4.4,0,0,1,119.69,13Z"/><path class="cls-3" d="M19.15,25.49a48.91,48.91,0,0,1,81.5-.08"/><path class="cls-4" d="M91,87.31,98,86.88a.25.25,0,0,1,.26.3L97,94.28"/></g></g></svg>